<svg width="14" height="16" viewBox="0 0 14 16" fill="none" xmlns="http://www.w3.org/2000/svg">
<path d="M11.3245 8.54914C11.3245 6.54145 13.0084 5.56998 13.0731 5.50522C12.1017 4.14516 10.6768 3.95087 10.1587 3.88611C8.92821 3.75658 7.69768 4.59851 7.1148 4.59851C6.46716 4.59851 5.4957 3.88611 4.45946 3.88611C3.09941 3.88611 1.86889 4.66328 1.15648 5.8938C-0.268336 8.35485 0.767895 11.9817 2.12795 13.9894C2.84036 14.9608 3.61753 16.0618 4.65376 15.997C5.68999 15.9323 6.07858 15.3494 7.3091 15.3494C8.53962 15.3494 8.86344 15.997 9.96444 15.997C11.0654 15.997 11.7778 15.0256 12.4255 14.0541C13.2027 12.9531 13.5265 11.8521 13.5265 11.7874C13.4617 11.7226 11.3245 10.9454 11.3245 8.54914Z" fill="#00A59B"/>
<path d="M9.31677 2.59058C9.83488 1.87817 10.2235 0.971466 10.1587 0C9.38153 0.0647644 8.3453 0.518115 7.82719 1.23052C7.30907 1.8134 6.85572 2.78487 6.98525 3.69157C7.82719 3.75633 8.73389 3.23822 9.31677 2.59058Z" fill="#00A59B"/>
</svg>
