<svg width="56" height="40" viewBox="0 0 56 40" fill="none" xmlns="http://www.w3.org/2000/svg">
<path d="M34.7329 13.8482L30.0081 9.16048C29.9184 9.05281 29.8238 8.94835 29.7227 8.84711C28.0869 7.22402 25.4252 7.21437 23.7764 8.82622C22.1291 10.4381 22.1193 13.0607 23.7552 14.6854C23.7503 14.6903 23.7437 14.6951 23.7388 14.6999C22.0916 16.3117 22.0818 18.9344 23.7176 20.5575C25.3535 22.1806 28.0151 22.1903 29.664 20.5784L34.7248 15.6272C35.2271 15.1386 35.2303 14.3415 34.7329 13.8482Z" fill="#FCFCFC"/>
<path d="M51.3846 14.7208C51.3895 14.716 51.396 14.7112 51.4009 14.7063C53.0483 13.0945 53.0581 10.4718 51.4221 8.84711C49.7861 7.22402 47.1241 7.21437 45.4751 8.82622L40.4137 13.7775C39.913 14.2676 39.9097 15.0631 40.4072 15.5564L45.1325 20.2441C45.2206 20.3518 45.3169 20.4563 45.418 20.5575C47.054 22.1806 49.716 22.1903 51.365 20.5784C53.0125 18.9666 53.0222 16.3439 51.3846 14.7208Z" fill="#FCFCFC"/>
<path d="M32.7477 6.02699L37.6513 1.16481C35.9916 -0.352754 33.3507 -0.299488 31.7514 1.28444C30.1538 2.86832 30.2036 5.38278 31.8634 6.90189L32.7801 7.74031C32.2754 7.2775 32.2605 6.51021 32.7477 6.02699Z" fill="#FCFCFC" fill-opacity="0.65"/>
<path d="M43.2552 1.18349C41.6917 -0.386432 39.1477 -0.395759 37.5717 1.16329L37.5577 1.1493L32.7253 5.93524C32.2452 6.41088 32.2421 7.18497 32.7191 7.66372L36.6583 11.6196C37.1337 12.0968 37.9053 12.0999 38.3839 11.6258L42.931 7.12279C43.0354 7.0373 43.1368 6.94715 43.235 6.85077C44.8094 5.29173 44.8187 2.75498 43.2552 1.18349Z" fill="#FCFCFC"/>
<path d="M20.0898 24.2472L18.3719 24.2407C17.8096 24.2391 17.3533 24.689 17.35 25.2473L17.3027 38.6432C17.3011 39.1383 17.7037 39.5413 18.2024 39.5429L20.0344 39.5494C20.5331 39.551 20.939 39.1513 20.9406 38.6561L20.9879 25.1469C20.9911 24.6518 20.5886 24.2488 20.0898 24.2472Z" fill="#FCFCFC"/>
<path d="M1.10687 24.1777L2.34558 24.1826C2.90952 24.1842 3.41641 24.5273 3.62341 25.0484L7.28574 34.2594C7.52045 34.8501 7.9051 34.8501 8.1398 34.2594L11.7891 25.0856C11.9977 24.5613 12.5079 24.2182 13.0767 24.2198L14.348 24.2247C15.264 24.2279 15.7187 24.914 15.3585 25.7507L9.65722 38.9864C9.51868 39.3068 9.20086 39.5139 8.85043 39.5139L6.57675 39.5058C6.22633 39.5042 5.91176 39.2971 5.77485 38.9766L0.0898298 25.7021C-0.221477 24.9772 0.314752 24.1745 1.10687 24.1777Z" fill="#FCFCFC"/>
<path d="M55.3841 30.4654L55.3531 39.1295C55.3515 39.4305 55.1054 39.6733 54.8039 39.6716L52.3509 39.6635C52.0477 39.6619 51.8033 39.4176 51.8049 39.1182L51.8098 37.8268C50.6721 39.2444 48.7309 40.0066 46.9413 40.0001C43.662 39.9888 41.1927 38.055 41.2041 35.0952C41.2156 32.0756 44.0548 30.0123 47.5134 30.0252C48.9151 30.0301 50.4342 30.3311 51.8342 30.87L51.8359 30.4557C51.8424 28.6789 50.8644 26.9587 48.061 26.949C46.7751 26.9441 45.5347 27.3292 44.3596 27.8633C44.0907 27.9846 43.7745 27.8697 43.6441 27.606L42.8829 26.0638C42.7476 25.7903 42.8634 25.4569 43.1421 25.3323C45.1321 24.4326 46.9984 23.9843 48.7863 23.9908C52.8725 24.0021 55.3988 26.5865 55.3841 30.4654ZM51.8212 34.8638L51.8261 33.5449C51.8277 33.3071 51.6745 33.0934 51.4463 33.0239C50.4113 32.7132 49.2623 32.5449 48.0431 32.5416C46.2242 32.5352 44.7589 33.5369 44.754 34.9884C44.7491 36.4384 46.0286 37.3608 47.7579 37.3673C49.5149 37.3721 51.3974 36.4902 51.8212 34.8638Z" fill="#FCFCFC"/>
<path d="M38.3204 16.6134L36.464 16.6069C35.9718 16.6053 35.5725 17.0002 35.5708 17.4873L35.5627 19.8531L35.5415 25.8488C35.5398 26.1077 35.2171 26.2355 35.0444 26.043C33.8464 24.7014 32.1888 23.9295 30.2102 23.9214C26.1241 23.9069 23.1316 27.2129 23.1153 31.8913C23.099 36.5988 26.0686 39.9259 30.1547 39.9389C32.1334 39.9453 33.7959 39.1848 35.0036 37.8513C35.178 37.6588 35.5007 37.7898 35.4991 38.0488L35.4975 38.6556C35.4958 39.1783 35.9212 39.6039 36.4477 39.6055L38.1802 39.612C38.7067 39.6136 39.1354 39.1912 39.137 38.6685L39.1826 25.9976L39.2038 19.8661L39.212 17.5002C39.2087 17.0131 38.811 16.615 38.3204 16.6134ZM31.1473 36.8642C28.5526 36.8545 26.7108 34.7767 26.7222 31.9043C26.732 29.0319 28.5884 26.9961 31.1832 27.0058C33.747 27.0155 35.5301 29.0642 35.5187 31.935C35.5089 34.8074 33.7111 36.8739 31.1473 36.8642Z" fill="#FCFCFC"/>
<g style="mix-blend-mode:multiply" opacity="0.1">
<path d="M20.0898 24.1388L18.3719 24.1323C17.8096 24.1307 17.3533 24.5806 17.35 25.1389L17.3027 38.5348C17.3011 39.0299 17.7037 39.4329 18.2024 39.4345L20.0344 39.441C20.5331 39.4426 20.939 39.0429 20.9406 38.5477L20.9879 25.0385C20.9911 24.5434 20.5886 24.1404 20.0898 24.1388Z" fill="#FCFCFC"/>
<path d="M1.10687 24.0689L2.34558 24.0737C2.90952 24.0753 3.41641 24.4184 3.62341 24.9395L7.28574 34.1506C7.52045 34.7412 7.9051 34.7412 8.1398 34.1506L11.7891 24.9767C11.9977 24.4524 12.5079 24.1093 13.0767 24.1109L14.348 24.1158C15.264 24.119 15.7187 24.8052 15.3585 25.6418L9.65722 38.8775C9.51868 39.1979 9.20086 39.405 8.85043 39.405L6.57675 39.3969C6.22633 39.3953 5.91176 39.1882 5.77485 38.8678L0.0898298 25.5932C-0.221477 24.8683 0.314752 24.0656 1.10687 24.0689Z" fill="#FCFCFC"/>
<path d="M55.3841 30.357L55.3531 39.0211C55.3515 39.3221 55.1054 39.5649 54.8039 39.5632L52.3509 39.5551C52.0477 39.5535 51.8033 39.3092 51.8049 39.0098L51.8098 37.7184C50.6721 39.136 48.7309 39.8982 46.9413 39.8917C43.662 39.8804 41.1927 37.9466 41.2041 34.9868C41.2156 31.9672 44.0548 29.9039 47.5134 29.9168C48.9151 29.9217 50.4342 30.2227 51.8342 30.7616L51.8359 30.3473C51.8424 28.5705 50.8644 26.8503 48.061 26.8406C46.7751 26.8357 45.5347 27.2208 44.3596 27.7549C44.0907 27.8762 43.7745 27.7613 43.6441 27.4976L42.8829 25.9554C42.7476 25.6819 42.8634 25.3485 43.1421 25.2239C45.1321 24.3242 46.9984 23.8759 48.7863 23.8824C52.8725 23.8937 55.3988 26.4781 55.3841 30.357ZM51.8212 34.7554L51.8261 33.4365C51.8277 33.1987 51.6745 32.985 51.4463 32.9155C50.4113 32.6048 49.2623 32.4365 48.0431 32.4332C46.2242 32.4268 44.7589 33.4285 44.754 34.88C44.7491 36.33 46.0286 37.2524 47.7579 37.2589C49.5149 37.2637 51.3974 36.3818 51.8212 34.7554Z" fill="#FCFCFC"/>
<path d="M38.3204 16.5055L36.464 16.499C35.9718 16.4974 35.5725 16.8923 35.5708 17.3794L35.5627 19.7452L35.5415 25.7409C35.5398 25.9998 35.2171 26.1276 35.0444 25.935C33.8464 24.5935 32.1888 23.8216 30.2102 23.8135C26.1241 23.799 23.1316 27.105 23.1153 31.7834C23.099 36.4909 26.0686 39.818 30.1547 39.831C32.1334 39.8374 33.7959 39.0769 35.0036 37.7434C35.178 37.5508 35.5007 37.6819 35.4991 37.9408L35.4975 38.5477C35.4958 39.0704 35.9212 39.496 36.4477 39.4976L38.1802 39.5041C38.7067 39.5057 39.1354 39.0833 39.137 38.5606L39.1826 25.8897L39.2038 19.7582L39.212 17.3923C39.2087 16.9052 38.811 16.5071 38.3204 16.5055ZM31.1473 36.7563C28.5526 36.7466 26.7108 34.6687 26.7222 31.7964C26.732 28.924 28.5884 26.8882 31.1832 26.8979C33.747 26.9076 35.5301 28.9563 35.5187 31.8271C35.5089 34.6995 33.7111 36.766 31.1473 36.7563Z" fill="#FCFCFC"/>
</g>
</svg>
