<svg width="27" height="20" viewBox="0 0 27 20" fill="none" xmlns="http://www.w3.org/2000/svg">
<g clip-path="url(#clip0)">
<path d="M27.8161 20H-1.14936C-1.43501 20 -1.66663 19.7643 -1.66663 19.4737V0.526339C-1.66663 0.235684 -1.43501 0 -1.14936 0H27.8161C28.1018 0 28.3334 0.235684 28.3334 0.526339V19.4737C28.3333 19.7643 28.1017 20 27.8161 20Z" fill="#41479B"/>
<path d="M28.3333 0.526339C28.3333 0.235684 28.1016 0 27.816 0H25.5018L15.9195 6.38827V0H10.7471V6.38827L1.16473 0H-1.14936C-1.43501 0 -1.66663 0.235684 -1.66663 0.526339V1.88756L6.55457 7.36839H-1.66663V12.6315H6.55457L-1.66663 18.1124V19.4737C-1.66663 19.7643 -1.43501 20 -1.14936 20H1.16479L10.7472 13.6117V20H15.9196V13.6117L25.502 20H27.8161C28.1018 20 28.3334 19.7643 28.3334 19.4737V18.1124L20.1122 12.6316H28.3333V7.36845H20.1121L28.3333 1.88756V0.526339Z" fill="#F5F5F5"/>
<path d="M28.5963 8.42107H14.9122V0H11.7543V8.42107H-1.92981V11.5789H11.7543V20H14.9122V11.5789H28.5963V8.42107Z" fill="#FF4B55"/>
<path d="M8.7393 12.6316L-1.91492 19.5475C-1.87765 19.8017 -1.66808 20 -1.40354 20H-0.678609L10.6727 12.6317H8.7393V12.6316Z" fill="#FF4B55"/>
<path d="M18.7223 12.6316H16.7889L28.1237 19.9891C28.3879 19.961 28.5964 19.7453 28.5964 19.4736V19.0409L18.7223 12.6316Z" fill="#FF4B55"/>
<path d="M-1.92981 1.10729L7.71567 7.36838H9.64907L-1.62318 0.0512695C-1.80323 0.134919 -1.92981 0.314677 -1.92981 0.526274V1.10729Z" fill="#FF4B55"/>
<path d="M17.8982 7.36839L28.578 0.435774C28.5337 0.190014 28.3286 0 28.07 0H27.316L15.9648 7.36839H17.8982Z" fill="#FF4B55"/>
</g>
<defs>
<clipPath id="clip0">
<rect width="26.6667" height="20" rx="6.66667" fill="white"/>
</clipPath>
</defs>
</svg>
