<svg width="18" height="18" viewBox="0 0 18 18" fill="none" xmlns="http://www.w3.org/2000/svg">
<circle cx="9" cy="9" r="9" fill="#00A59B"/>
<path d="M6.70711 5.29289C6.31658 4.90237 5.68342 4.90237 5.29289 5.29289C4.90237 5.68342 4.90237 6.31658 5.29289 6.70711L6.70711 5.29289ZM11.2929 12.7071C11.6834 13.0976 12.3166 13.0976 12.7071 12.7071C13.0976 12.3166 13.0976 11.6834 12.7071 11.2929L11.2929 12.7071ZM12.7071 6.70711C13.0976 6.31658 13.0976 5.68342 12.7071 5.29289C12.3166 4.90237 11.6834 4.90237 11.2929 5.29289L12.7071 6.70711ZM5.29289 11.2929C4.90237 11.6834 4.90237 12.3166 5.29289 12.7071C5.68342 13.0976 6.31658 13.0976 6.70711 12.7071L5.29289 11.2929ZM5.29289 6.70711L8.29289 9.70711L9.70711 8.29289L6.70711 5.29289L5.29289 6.70711ZM8.29289 9.70711L11.2929 12.7071L12.7071 11.2929L9.70711 8.29289L8.29289 9.70711ZM11.2929 5.29289L8.29289 8.29289L9.70711 9.70711L12.7071 6.70711L11.2929 5.29289ZM8.29289 8.29289L5.29289 11.2929L6.70711 12.7071L9.70711 9.70711L8.29289 8.29289Z" fill="white"/>
</svg>
