<svg width="20" height="20" viewBox="0 0 20 20" fill="none" xmlns="http://www.w3.org/2000/svg">
<path fill-rule="evenodd" clip-rule="evenodd" d="M8.41808 2.1999C4.98388 2.1999 2.1999 4.98388 2.1999 8.41809C2.1999 11.8523 4.98388 14.6363 8.41808 14.6363C11.8523 14.6363 14.6363 11.8523 14.6363 8.41809C14.6363 4.98388 11.8523 2.1999 8.41808 2.1999ZM0.399902 8.41809C0.399902 3.98976 3.98976 0.399902 8.41808 0.399902C12.8464 0.399902 16.4363 3.98976 16.4363 8.41809C16.4363 10.308 15.7824 12.0452 14.6886 13.4158L19.3363 18.0635C19.6878 18.415 19.6878 18.9848 19.3363 19.3363C18.9848 19.6878 18.415 19.6878 18.0635 19.3363L13.4158 14.6886C12.0452 15.7824 10.308 16.4363 8.41808 16.4363C3.98976 16.4363 0.399902 12.8464 0.399902 8.41809Z" fill="#00A59B"/>
</svg>
