<svg width="27" height="20" viewBox="0 0 27 20" fill="none" xmlns="http://www.w3.org/2000/svg">
<g clip-path="url(#clip0)">
<path d="M27.8161 20H-1.14936C-1.43501 20 -1.66663 19.7643 -1.66663 19.4737V0.526339C-1.66663 0.235684 -1.43501 0 -1.14936 0H27.8161C28.1018 0 28.3334 0.235684 28.3334 0.526339V19.4737C28.3333 19.7643 28.1017 20 27.8161 20Z" fill="#F5F5F5"/>
<path d="M27.4827 10H-1.48274C-1.76838 10 -2 9.88216 -2 9.73683V0.26317C-2 0.117842 -1.76838 0 -1.48274 0H27.4827C27.7684 0 28 0.117842 28 0.26317V9.73683C27.9999 9.88216 27.7683 10 27.4827 10Z" fill="#FF4B55"/>
</g>
<defs>
<clipPath id="clip0">
<rect width="26.6667" height="20" rx="6.66667" fill="white"/>
</clipPath>
</defs>
</svg>
