<svg width="14" height="16" viewBox="0 0 14 16" fill="none" xmlns="http://www.w3.org/2000/svg">
<path d="M11.325 8.54914C11.325 6.54145 13.0089 5.56998 13.0736 5.50522C12.1022 4.14516 10.6773 3.95087 10.1592 3.88611C8.9287 3.75658 7.69817 4.59851 7.11529 4.59851C6.46765 4.59851 5.49618 3.88611 4.45995 3.88611C3.0999 3.88611 1.86938 4.66328 1.15697 5.8938C-0.267848 8.35485 0.768383 11.9817 2.12844 13.9894C2.84084 14.9608 3.61802 16.0618 4.65425 15.997C5.69048 15.9323 6.07906 15.3494 7.30959 15.3494C8.54011 15.3494 8.86393 15.997 9.96493 15.997C11.0659 15.997 11.7783 15.0256 12.426 14.0541C13.2031 12.9531 13.527 11.8521 13.527 11.7874C13.4622 11.7226 11.325 10.9454 11.325 8.54914Z" fill="#7B7B7B"/>
<path d="M9.31725 2.59058C9.83537 1.87817 10.224 0.971466 10.1592 0C9.38202 0.0647644 8.34579 0.518115 7.82768 1.23052C7.30956 1.8134 6.85621 2.78487 6.98574 3.69157C7.82767 3.75633 8.73437 3.23822 9.31725 2.59058Z" fill="#7B7B7B"/>
</svg>
