<svg width="61" height="44" viewBox="0 0 61 44" fill="none" xmlns="http://www.w3.org/2000/svg">
<path d="M38.2549 15.2331L33.051 10.0766C32.9522 9.95819 32.848 9.84329 32.7367 9.73192C30.935 7.94651 28.0034 7.93591 26.1873 9.70894C24.3731 11.482 24.3623 14.3669 26.164 16.1541C26.1586 16.1594 26.1514 16.1647 26.146 16.17C24.3317 17.943 24.321 20.828 26.1227 22.6134C27.9244 24.3988 30.8559 24.4094 32.672 22.6363L38.2459 17.19C38.7992 16.6526 38.8028 15.7758 38.2549 15.2331Z" fill="#01E0D3"/>
<path d="M56.5959 16.193C56.6013 16.1877 56.6085 16.1824 56.6139 16.1771C58.4284 14.404 58.4391 11.5191 56.6372 9.73192C54.8353 7.94651 51.9034 7.93591 50.0872 9.70894L44.5126 15.1553C43.9611 15.6945 43.9575 16.5695 44.5054 17.1122L49.7099 22.2687C49.8069 22.3871 49.9129 22.502 50.0243 22.6134C51.8262 24.3988 54.7581 24.4094 56.5744 22.6363C58.3889 20.8633 58.3996 17.9784 56.5959 16.193Z" fill="#01E0D3"/>
<path d="M35.5575 6.50274L41.0776 1.28923C39.2916 -0.420955 36.3855 -0.431115 34.5853 1.26721C32.7868 2.96554 32.7761 5.72892 34.5621 7.4408L35.5486 8.38563C35.0055 7.86411 35.0091 7.02087 35.5575 6.50274Z" fill="#99F3ED"/>
<path d="M47.641 1.30184C45.9189 -0.425075 43.1169 -0.435335 41.3811 1.27962L41.3657 1.26423L36.0433 6.52877C35.5145 7.05197 35.511 7.90347 36.0364 8.43009L40.375 12.7816C40.8987 13.3065 41.7486 13.3099 42.2757 12.7884L47.2839 7.83507C47.3989 7.74103 47.5105 7.64186 47.6187 7.53585C49.3527 5.8209 49.363 3.03047 47.641 1.30184Z" fill="#01E0D3"/>
<path d="M22.1273 26.6718L20.2352 26.6647C19.6159 26.6629 19.1133 27.1578 19.1097 27.7719L19.0576 42.5074C19.0558 43.0521 19.4992 43.4953 20.0485 43.4971L22.0663 43.5042C22.6156 43.506 23.0626 43.0663 23.0644 42.5216L23.1165 27.6615C23.12 27.1168 22.6766 26.6736 22.1273 26.6718Z" fill="#E1B59B"/>
<path d="M1.21912 26.595L2.58343 26.6003C3.20455 26.6021 3.76285 26.9795 3.99084 27.5527L8.02455 37.6849C8.28305 38.3346 8.70671 38.3346 8.96521 37.6849L12.9846 27.5936C13.2143 27.0169 13.7762 26.6395 14.4027 26.6413L15.803 26.6466C16.8118 26.6502 17.3127 27.4049 16.916 28.3252L10.6365 42.8845C10.4839 43.2369 10.1339 43.4648 9.74791 43.4648L7.24366 43.4559C6.8577 43.4541 6.51124 43.2262 6.36045 42.8738L0.098939 28.2718C-0.243936 27.4743 0.346669 26.5914 1.21912 26.595Z" fill="#E1B59B"/>
<path d="M60.9998 33.5119L60.9656 43.0424C60.9639 43.3735 60.6928 43.6406 60.3607 43.6388L57.659 43.6299C57.3251 43.6281 57.0558 43.3593 57.0576 43.03L57.063 41.6095C55.81 43.1688 53.6719 44.0072 51.7008 44.0001C48.089 43.9877 45.3693 41.8605 45.3819 38.6047C45.3944 35.2831 48.5216 33.0135 52.3309 33.0277C53.8748 33.0331 55.5479 33.3642 57.0899 33.9569L57.0917 33.5012C57.0989 31.5467 56.0218 29.6545 52.9341 29.6438C51.5177 29.6385 50.1516 30.0621 48.8573 30.6496C48.5611 30.7831 48.2128 30.6567 48.0692 30.3665L47.2309 28.6701C47.0819 28.3693 47.2093 28.0026 47.5163 27.8655C49.7082 26.8758 51.7637 26.3827 53.733 26.3898C58.2334 26.4023 61.0159 29.2451 60.9998 33.5119ZM57.0756 38.3502L57.0809 36.8994C57.0827 36.6377 56.914 36.4028 56.6627 36.3262C55.5227 35.9844 54.2571 35.7993 52.9144 35.7958C50.911 35.7886 49.2971 36.8905 49.2917 38.4872C49.2863 40.0822 50.6955 41.0968 52.6002 41.1039C54.5354 41.1093 56.6088 40.1391 57.0756 38.3502Z" fill="#E1B59B"/>
<path d="M42.206 18.2745L40.1614 18.2673C39.6192 18.2656 39.1794 18.6999 39.1776 19.2357L39.1686 21.8382L39.1453 28.4333C39.1435 28.7182 38.7881 28.8588 38.5978 28.647C37.2783 27.1713 35.4527 26.3222 33.2734 26.3133C28.7729 26.2973 25.477 29.934 25.4591 35.0802C25.4411 40.2584 28.7119 43.9182 33.2123 43.9325C35.3916 43.9396 37.2227 43.103 38.5529 41.6362C38.745 41.4243 39.1004 41.5685 39.0986 41.8533L39.0968 42.5209C39.095 43.0958 39.5636 43.564 40.1434 43.5658L42.0517 43.5729C42.6315 43.5747 43.1036 43.1101 43.1054 42.5351L43.1557 28.5971L43.179 21.8524L43.188 19.2499C43.1844 18.7141 42.7464 18.2762 42.206 18.2745ZM34.3056 40.5503C31.4477 40.5396 29.4192 38.254 29.4317 35.0944C29.4425 31.9348 31.4872 29.6954 34.3451 29.7061C37.1688 29.7168 39.1327 31.9704 39.1202 35.1282C39.1094 38.2878 37.1293 40.561 34.3056 40.5503Z" fill="#E1B59B"/>
<g style="mix-blend-mode:multiply" opacity="0.1">
<path d="M22.1273 26.553L20.2352 26.5459C19.6159 26.5441 19.1133 27.039 19.1097 27.6531L19.0576 42.3886C19.0558 42.9333 19.4992 43.3765 20.0485 43.3783L22.0663 43.3854C22.6156 43.3872 23.0626 42.9475 23.0644 42.4028L23.1165 27.5427C23.12 26.998 22.6766 26.5548 22.1273 26.553Z" fill="#E1B59B"/>
<path d="M1.21912 26.4762L2.58343 26.4815C3.20455 26.4833 3.76285 26.8607 3.99084 27.4339L8.02455 37.5661C8.28305 38.2158 8.70671 38.2158 8.96521 37.5661L12.9846 27.4748C13.2143 26.8981 13.7762 26.5207 14.4027 26.5225L15.803 26.5278C16.8118 26.5314 17.3127 27.2861 16.916 28.2064L10.6365 42.7657C10.4839 43.1181 10.1339 43.346 9.74791 43.346L7.24366 43.3371C6.8577 43.3353 6.51124 43.1075 6.36045 42.755L0.098939 28.153C-0.243936 27.3556 0.346669 26.4726 1.21912 26.4762Z" fill="#E1B59B"/>
<path d="M60.9998 33.3928L60.9656 42.9233C60.9639 43.2544 60.6928 43.5214 60.3607 43.5196L57.659 43.5107C57.3251 43.509 57.0558 43.2402 57.0576 42.9108L57.063 41.4903C55.81 43.0497 53.6719 43.8881 51.7008 43.881C48.089 43.8685 45.3693 41.7413 45.3819 38.4856C45.3944 35.164 48.5216 32.8944 52.3309 32.9086C53.8748 32.9139 55.5479 33.245 57.0899 33.8378L57.0917 33.3821C57.0989 31.4276 56.0218 29.5354 52.9341 29.5247C51.5177 29.5193 50.1516 29.943 48.8573 30.5304C48.5611 30.6639 48.2128 30.5375 48.0692 30.2474L47.2309 28.551C47.0819 28.2501 47.2093 27.8835 47.5163 27.7464C49.7082 26.7567 51.7637 26.2636 53.733 26.2707C58.2334 26.2832 61.0159 29.1259 60.9998 33.3928ZM57.0756 38.231L57.0809 36.7803C57.0827 36.5186 56.914 36.2836 56.6627 36.2071C55.5227 35.8653 54.2571 35.6802 52.9144 35.6766C50.911 35.6695 49.2971 36.7714 49.2917 38.3681C49.2863 39.963 50.6955 40.9777 52.6002 40.9848C54.5354 40.9901 56.6088 40.02 57.0756 38.231Z" fill="#E1B59B"/>
<path d="M42.206 18.1563L40.1614 18.1492C39.6192 18.1474 39.1794 18.5817 39.1776 19.1175L39.1686 21.72L39.1453 28.3152C39.1435 28.6 38.7881 28.7406 38.5978 28.5288C37.2783 27.0531 35.4527 26.204 33.2734 26.1951C28.7729 26.1791 25.477 29.8158 25.4591 34.962C25.4411 40.1402 28.7119 43.8001 33.2123 43.8143C35.3916 43.8214 37.2227 42.9848 38.5529 41.518C38.745 41.3062 39.1004 41.4504 39.0986 41.7352L39.0968 42.4027C39.095 42.9777 39.5636 43.4458 40.1434 43.4476L42.0517 43.4547C42.6315 43.4565 43.1036 42.9919 43.1054 42.4169L43.1557 28.479L43.179 21.7342L43.188 19.1318C43.1844 18.596 42.7464 18.1581 42.206 18.1563ZM34.3056 40.4322C31.4477 40.4215 29.4192 38.1359 29.4317 34.9762C29.4425 31.8166 31.4872 29.5773 34.3451 29.5879C37.1688 29.5986 39.1327 31.8522 39.1202 35.0101C39.1094 38.1697 37.1293 40.4428 34.3056 40.4322Z" fill="#E1B59B"/>
</g>
</svg>
