<svg width="61" height="44" viewBox="0 0 61 44" fill="none" xmlns="http://www.w3.org/2000/svg">
<path d="M38.2545 15.2331L33.0505 10.0766C32.9517 9.95819 32.8476 9.84329 32.7362 9.73192C30.9345 7.94651 28.0029 7.93591 26.1868 9.70894C24.3726 11.482 24.3618 14.3669 26.1635 16.1541C26.1581 16.1594 26.1509 16.1647 26.1455 16.17C24.3313 17.943 24.3205 20.828 26.1222 22.6134C27.9239 24.3988 30.8555 24.4094 32.6715 22.6363L38.2455 17.19C38.7987 16.6526 38.8023 15.7758 38.2545 15.2331Z" fill="#01E0D3"/>
<path d="M56.5956 16.193C56.601 16.1877 56.6081 16.1824 56.6135 16.1771C58.428 14.404 58.4388 11.5191 56.6369 9.73192C54.835 7.94651 51.9031 7.93591 50.0868 9.70894L44.5122 15.1553C43.9607 15.6945 43.9571 16.5695 44.505 17.1122L49.7095 22.2687C49.8065 22.3871 49.9125 22.502 50.0239 22.6134C51.8258 24.3988 54.7577 24.4094 56.574 22.6363C58.3885 20.8633 58.3993 17.9784 56.5956 16.193Z" fill="#01E0D3"/>
<path d="M35.5578 6.50274L41.0778 1.28923C39.2918 -0.420955 36.3858 -0.431115 34.5855 1.26721C32.787 2.96554 32.7764 5.72892 34.5624 7.4408L35.5489 8.38563C35.0057 7.86411 35.0093 7.02087 35.5578 6.50274Z" fill="#99F3ED"/>
<path d="M47.6412 1.30184C45.9192 -0.425075 43.1172 -0.435335 41.3814 1.27962L41.3659 1.26423L36.0435 6.52877C35.5147 7.05197 35.5113 7.90347 36.0367 8.43009L40.3753 12.7816C40.8989 13.3065 41.7488 13.3099 42.2759 12.7884L47.2841 7.83507C47.3991 7.74103 47.5107 7.64186 47.6189 7.53585C49.353 5.8209 49.3633 3.03047 47.6412 1.30184Z" fill="#01E0D3"/>
<path d="M22.1272 26.6718L20.2351 26.6647C19.6158 26.6629 19.1131 27.1578 19.1096 27.7719L19.0575 42.5074C19.0557 43.0521 19.4991 43.4953 20.0484 43.4971L22.0662 43.5042C22.6155 43.506 23.0625 43.0663 23.0643 42.5216L23.1163 27.6615C23.1199 27.1168 22.6765 26.6736 22.1272 26.6718Z" fill="#E1B59B"/>
<path d="M1.21912 26.595L2.58343 26.6003C3.20455 26.6021 3.76285 26.9795 3.99084 27.5527L8.02455 37.6849C8.28305 38.3346 8.70671 38.3346 8.96521 37.6849L12.9846 27.5936C13.2143 27.0169 13.7762 26.6395 14.4027 26.6413L15.803 26.6466C16.8118 26.6502 17.3127 27.4049 16.916 28.3252L10.6365 42.8845C10.4839 43.2369 10.1339 43.4648 9.74791 43.4648L7.24366 43.4559C6.8577 43.4541 6.51124 43.2262 6.36045 42.8738L0.098939 28.2718C-0.243936 27.4743 0.346669 26.5914 1.21912 26.595Z" fill="#E1B59B"/>
<path d="M60.9999 33.5119L60.9658 43.0424C60.964 43.3735 60.6929 43.6406 60.3608 43.6388L57.6591 43.6299C57.3252 43.6281 57.0559 43.3593 57.0577 43.03L57.0631 41.6095C55.8101 43.1688 53.672 44.0072 51.701 44.0001C48.0891 43.9877 45.3694 41.8605 45.382 38.6047C45.3946 35.2831 48.5217 33.0135 52.3311 33.0277C53.8749 33.0331 55.548 33.3642 57.09 33.9569L57.0918 33.5012C57.099 31.5467 56.0219 29.6545 52.9342 29.6438C51.5178 29.6385 50.1517 30.0621 48.8574 30.6496C48.5612 30.7831 48.213 30.6567 48.0693 30.3665L47.231 28.6701C47.082 28.3693 47.2095 28.0026 47.5164 27.8655C49.7083 26.8758 51.7638 26.3827 53.7331 26.3898C58.2335 26.4023 61.016 29.2451 60.9999 33.5119ZM57.0757 38.3502L57.081 36.8994C57.0828 36.6377 56.9141 36.4028 56.6628 36.3262C55.5229 35.9844 54.2573 35.7993 52.9145 35.7958C50.9111 35.7886 49.2972 36.8905 49.2919 38.4872C49.2865 40.0822 50.6957 41.0968 52.6003 41.1039C54.5355 41.1093 56.6089 40.1391 57.0757 38.3502Z" fill="#E1B59B"/>
<path d="M42.2062 18.2745L40.1615 18.2673C39.6193 18.2656 39.1795 18.6999 39.1777 19.2357L39.1688 21.8382L39.1454 28.4333C39.1436 28.7182 38.7882 28.8588 38.5979 28.647C37.2785 27.1713 35.4528 26.3222 33.2735 26.3133C28.773 26.2973 25.4771 29.934 25.4592 35.0802C25.4412 40.2584 28.712 43.9182 33.2124 43.9325C35.3918 43.9396 37.2228 43.103 38.553 41.6362C38.7451 41.4243 39.1006 41.5685 39.0988 41.8533L39.097 42.5209C39.0952 43.0958 39.5637 43.564 40.1435 43.5658L42.0518 43.5729C42.6316 43.5747 43.1037 43.1101 43.1055 42.5351L43.1558 28.5971L43.1791 21.8524L43.1881 19.2499C43.1845 18.7141 42.7465 18.2762 42.2062 18.2745ZM34.3057 40.5503C31.4478 40.5396 29.4193 38.254 29.4319 35.0944C29.4426 31.9348 31.4873 29.6954 34.3452 29.7061C37.169 29.7168 39.1329 31.9704 39.1203 35.1282C39.1095 38.2878 37.1295 40.561 34.3057 40.5503Z" fill="#E1B59B"/>
<g style="mix-blend-mode:multiply" opacity="0.1">
<path d="M22.1272 26.553L20.2351 26.5459C19.6158 26.5441 19.1131 27.039 19.1096 27.6531L19.0575 42.3886C19.0557 42.9333 19.4991 43.3765 20.0484 43.3783L22.0662 43.3854C22.6155 43.3872 23.0625 42.9475 23.0643 42.4028L23.1163 27.5427C23.1199 26.998 22.6765 26.5548 22.1272 26.553Z" fill="#E1B59B"/>
<path d="M1.21912 26.4762L2.58343 26.4815C3.20455 26.4833 3.76285 26.8607 3.99084 27.4339L8.02455 37.5661C8.28305 38.2158 8.70671 38.2158 8.96521 37.5661L12.9846 27.4748C13.2143 26.8981 13.7762 26.5207 14.4027 26.5225L15.803 26.5278C16.8118 26.5314 17.3127 27.2861 16.916 28.2064L10.6365 42.7657C10.4839 43.1181 10.1339 43.346 9.74791 43.346L7.24366 43.3371C6.8577 43.3353 6.51124 43.1075 6.36045 42.755L0.098939 28.153C-0.243936 27.3556 0.346669 26.4726 1.21912 26.4762Z" fill="#E1B59B"/>
<path d="M60.9999 33.3928L60.9658 42.9233C60.964 43.2544 60.6929 43.5214 60.3608 43.5196L57.6591 43.5107C57.3252 43.509 57.0559 43.2402 57.0577 42.9108L57.0631 41.4903C55.8101 43.0497 53.672 43.8881 51.701 43.881C48.0891 43.8685 45.3694 41.7413 45.382 38.4856C45.3946 35.164 48.5217 32.8944 52.3311 32.9086C53.8749 32.9139 55.548 33.245 57.09 33.8378L57.0918 33.3821C57.099 31.4276 56.0219 29.5354 52.9342 29.5247C51.5178 29.5193 50.1517 29.943 48.8574 30.5304C48.5612 30.6639 48.213 30.5375 48.0693 30.2474L47.231 28.551C47.082 28.2501 47.2095 27.8835 47.5164 27.7464C49.7083 26.7567 51.7638 26.2636 53.7331 26.2707C58.2335 26.2832 61.016 29.1259 60.9999 33.3928ZM57.0757 38.231L57.081 36.7803C57.0828 36.5186 56.9141 36.2836 56.6628 36.2071C55.5229 35.8653 54.2573 35.6802 52.9145 35.6766C50.9111 35.6695 49.2972 36.7714 49.2919 38.3681C49.2865 39.963 50.6957 40.9777 52.6003 40.9848C54.5355 40.9901 56.6089 40.02 57.0757 38.231Z" fill="#E1B59B"/>
<path d="M42.2062 18.1563L40.1615 18.1492C39.6193 18.1474 39.1795 18.5817 39.1777 19.1175L39.1688 21.72L39.1454 28.3152C39.1436 28.6 38.7882 28.7406 38.5979 28.5288C37.2785 27.0531 35.4528 26.204 33.2735 26.1951C28.773 26.1791 25.4771 29.8158 25.4592 34.962C25.4412 40.1402 28.712 43.8001 33.2124 43.8143C35.3918 43.8214 37.2228 42.9848 38.553 41.518C38.7451 41.3062 39.1006 41.4504 39.0988 41.7352L39.097 42.4027C39.0952 42.9777 39.5637 43.4458 40.1435 43.4476L42.0518 43.4547C42.6316 43.4565 43.1037 42.9919 43.1055 42.4169L43.1558 28.479L43.1791 21.7342L43.1881 19.1318C43.1845 18.596 42.7465 18.1581 42.2062 18.1563ZM34.3057 40.4322C31.4478 40.4215 29.4193 38.1359 29.4319 34.9762C29.4426 31.8166 31.4873 29.5773 34.3452 29.5879C37.169 29.5986 39.1329 31.8522 39.1203 35.0101C39.1095 38.1697 37.1295 40.4428 34.3057 40.4322Z" fill="#E1B59B"/>
</g>
</svg>
