<svg width="44" height="44" viewBox="0 0 44 44" fill="none" xmlns="http://www.w3.org/2000/svg">
<circle r="22" transform="matrix(-1 0 0 1 22 22)" fill="#F4F1EE"/>
<path fill-rule="evenodd" clip-rule="evenodd" d="M21.1492 11.5279C20.6185 10.9972 19.7581 10.9972 19.2275 11.5279L9.71573 21.0396C9.18508 21.5703 9.18508 22.4307 9.71573 22.9613L19.2275 32.4731C19.7581 33.0037 20.6185 33.0037 21.1492 32.4731C21.6798 31.9424 21.6798 31.0821 21.1492 30.5514L13.9571 23.3593H33.3236C34.0741 23.3593 34.6824 22.7509 34.6824 22.0005C34.6824 21.25 34.0741 20.6416 33.3236 20.6416H13.9571L21.1492 13.4495C21.6798 12.9189 21.6798 12.0585 21.1492 11.5279Z" fill="#DEB196"/>
</svg>
